<svg width="42" height="42" viewBox="0 0 42 42" fill="none" xmlns="http://www.w3.org/2000/svg">
<path d="M20.5377 18.7165H24.3684L23.9428 20.419H20.5377V28.0805H18.8351V20.419H15.4301V18.7165H18.8351V17.1227C18.8351 15.6048 18.9932 15.0544 19.29 14.4995C19.5867 13.9446 20.0222 13.5091 20.5771 13.2124C21.1321 12.9156 21.6824 12.7576 23.2003 12.7576C23.6447 12.7576 24.034 12.8001 24.3684 12.8853V14.4601H23.2003C22.0735 14.4601 21.7303 14.5264 21.38 14.7137C21.1218 14.8518 20.9294 15.0442 20.7913 15.3025C20.6039 15.6527 20.5377 15.9959 20.5377 17.1227V18.7165Z" fill="#EBE8E3"/>
<rect x="0.788474" y="1.35061" width="39.8396" height="39.8396" rx="19.9198" stroke="#8A8787" stroke-width="1.02153"/>
</svg>
