<svg width="41" height="42" viewBox="0 0 41 42" fill="none" xmlns="http://www.w3.org/2000/svg">
<path d="M20.5041 18.7167C19.0932 18.7167 17.9502 19.8601 17.9502 21.2705C17.9502 22.6814 19.0936 23.8244 20.5041 23.8244C21.9149 23.8244 23.0579 22.681 23.0579 21.2705C23.0579 19.8597 21.9146 18.7167 20.5041 18.7167ZM20.5041 17.0142C22.8539 17.0142 24.7604 18.9186 24.7604 21.2705C24.7604 23.6205 22.8561 25.5269 20.5041 25.5269C18.1542 25.5269 16.2477 23.6225 16.2477 21.2705C16.2477 18.9206 18.1521 17.0142 20.5041 17.0142ZM26.0374 16.8006C26.0374 17.3881 25.56 17.8647 24.9733 17.8647C24.3858 17.8647 23.9092 17.3874 23.9092 16.8006C23.9092 16.2139 24.3865 15.7373 24.9733 15.7373C25.5592 15.7365 26.0374 16.2139 26.0374 16.8006ZM20.5041 14.4604C18.3976 14.4604 18.0543 14.4659 17.0745 14.5096C16.407 14.5409 15.9596 14.6307 15.5438 14.7921C15.1744 14.9354 14.9079 15.1065 14.6239 15.3904C14.3389 15.6755 14.1681 15.9413 14.0254 16.3109C13.8636 16.7276 13.7739 17.1743 13.7431 17.8409C13.699 18.7807 13.6939 19.1092 13.6939 21.2705C13.6939 23.377 13.6995 23.7203 13.7431 24.7C13.7744 25.3672 13.8643 25.8153 14.0253 26.2301C14.169 26.6 14.3404 26.8672 14.623 27.1498C14.9092 27.4356 15.1758 27.6069 15.5419 27.7482C15.9627 27.9109 16.4099 28.0008 17.0744 28.0315C18.0143 28.0755 18.3427 28.0807 20.5041 28.0807C22.6106 28.0807 22.9539 28.0751 23.9335 28.0315C24.5993 28.0003 25.0478 27.9101 25.4636 27.7492C25.8325 27.606 26.1005 27.4339 26.3833 27.1516C26.6695 26.8649 26.8405 26.599 26.982 26.232C27.1443 25.8128 27.2343 25.365 27.2651 24.7002C27.3091 23.7603 27.3143 23.4318 27.3143 21.2705C27.3143 19.1641 27.3086 18.8208 27.2651 17.8411C27.2337 17.1751 27.1436 16.726 26.9825 16.3103C26.8396 15.9419 26.6679 15.6746 26.3842 15.3904C26.0986 15.1049 25.8336 14.9345 25.4637 14.7919C25.0473 14.6302 24.5999 14.5403 23.9337 14.5096C22.9939 14.4655 22.6654 14.4604 20.5041 14.4604ZM20.5041 12.7578C22.8167 12.7578 23.1054 12.7663 24.0135 12.8089C24.9193 12.8507 25.5372 12.994 26.0799 13.2047C26.641 13.4211 27.1149 13.7134 27.588 14.1865C28.0605 14.6597 28.3528 15.135 28.5699 15.6947C28.7798 16.2367 28.9232 16.8553 28.9657 17.7612C29.0062 18.6692 29.0168 18.9579 29.0168 21.2705C29.0168 23.5832 29.0083 23.8719 28.9657 24.7799C28.9239 25.6858 28.7798 26.3037 28.5699 26.8464C28.3535 27.4075 28.0605 27.8814 27.588 28.3546C27.1149 28.827 26.6389 29.1193 26.0799 29.3364C25.5372 29.5464 24.9193 29.6896 24.0135 29.7322C23.1054 29.7726 22.8167 29.7833 20.5041 29.7833C18.1914 29.7833 17.9027 29.7748 16.9947 29.7322C16.0888 29.6903 15.4716 29.5464 14.9282 29.3364C14.3678 29.12 13.8932 28.827 13.4201 28.3546C12.9469 27.8814 12.6553 27.4054 12.4383 26.8464C12.2276 26.3037 12.085 25.6858 12.0424 24.7799C12.002 23.8719 11.9913 23.5832 11.9913 21.2705C11.9913 18.9579 11.9998 18.6692 12.0424 17.7612C12.0843 16.8546 12.2276 16.2374 12.4383 15.6947C12.6546 15.1343 12.9469 14.6597 13.4201 14.1865C13.8932 13.7134 14.3685 13.4218 14.9282 13.2047C15.4709 12.994 16.0881 12.8515 16.9947 12.8089C17.9027 12.7685 18.1914 12.7578 20.5041 12.7578Z" fill="#EBE8E3"/>
<rect x="0.58303" y="1.35085" width="39.8396" height="39.8396" rx="19.9198" stroke="#8A8787" stroke-width="1.02153"/>
</svg>
