<svg width="1391" height="119" viewBox="0 0 1391 119" fill="none" xmlns="http://www.w3.org/2000/svg">
<path fill-rule="evenodd" clip-rule="evenodd" d="M184.595 49.2386C170.982 76.1872 157.263 102.207 154.108 107.059C150.953 111.911 148.373 116.2 148.373 116.591C148.373 116.981 154.349 117.3 161.654 117.3H174.936V112.498C174.936 107.38 178.628 96.4913 183.875 86.1388L187.079 79.8143L208.442 80.1439L229.806 80.4736L235.089 92.5358C238.094 99.3988 240.654 107.336 241.027 110.949L241.683 117.3H254.895C262.163 117.3 267.928 116.892 267.706 116.395C267.485 115.897 265.253 112.46 262.746 108.759C258.946 103.147 239.263 62.4237 215.69 11.4027C212.866 5.28947 210.283 0.276227 209.951 0.262945C209.619 0.249664 198.209 22.2888 184.595 49.2386ZM427.288 49.2616C413.675 76.2246 399.956 102.245 396.801 107.084C393.646 111.922 391.066 116.2 391.066 116.591C391.066 116.981 396.966 117.3 404.178 117.3H417.291L417.973 110.695C418.384 106.719 420.756 99.3928 423.937 92.2822L429.219 80.4736H450.833H472.447L477.73 92.2822C480.91 99.3928 483.283 106.719 483.693 110.695L484.376 117.3H497.488C504.7 117.3 510.601 117.002 510.601 116.637C510.601 116.273 508.425 112.877 505.766 109.091C501.736 103.351 483.398 65.5425 458.383 11.4027C455.559 5.28947 452.976 0.276227 452.644 0.262945C452.312 0.249664 440.902 22.2997 427.288 49.2616ZM759.496 3.04003C753.651 5.15544 746.413 11.6381 743.482 17.3819C738.195 27.7452 741.215 43.6229 749.659 49.8665L753.25 52.5216L747.443 55.8384C732.391 64.4353 726.869 80.6994 733.545 96.7738C736.181 103.119 743.055 109.464 751.331 113.191C757.473 115.957 760.88 116.612 771.42 117.054C792.104 117.922 805.185 113.177 818.426 100.005L824.344 94.1187L834.137 102.09C843.908 110.042 856.414 117.3 860.348 117.3C861.491 117.3 866.175 115.072 870.758 112.35L879.091 107.399L869.274 103.442C858.973 99.2877 845.743 91.1158 838.007 84.1272L833.425 79.987L837.338 68.1566C841.498 55.5764 843.842 40.2759 843.847 25.6636L843.851 16.7347L852.605 17.5086C857.419 17.9336 862.852 18.6183 864.679 19.0312L867.999 19.7798V11.1878V2.59449H837.814H807.628V10.549V18.5036L812.156 17.8262C814.647 17.4531 819.265 16.7999 822.419 16.3749L828.154 15.6021V28.1956C828.154 35.1214 827.583 44.0129 826.885 47.9527C825.754 54.3376 822.38 66.5012 821.432 67.6133C821.234 67.8451 817.473 65.4652 813.072 62.3247C808.671 59.1842 801.113 54.8942 796.275 52.7909L787.478 48.9669L792.032 43.8366C800.827 33.9248 800.389 16.7745 791.127 8.39376C784.171 2.09823 769.133 -0.447023 759.496 3.04003ZM969.423 3.83693C953.646 11.1322 945.996 27.0123 950.612 42.8888C953.179 51.7211 958.197 56.7802 974.054 66.5254C989.533 76.0375 993.572 80.4434 993.572 87.8196C993.572 95.11 990.896 99.8636 985.143 102.799C975.654 107.639 964.468 104.957 955.595 95.7101C952.97 92.9753 950.388 90.7367 949.859 90.7367C949.331 90.7367 948.897 95.8828 948.897 102.173V113.61L955.236 115.374C965.4 118.203 973.332 118.78 981.545 117.292C1000.88 113.786 1010.88 102.9 1010.93 85.3033C1010.94 80.5931 1010.25 75.5147 1009.37 73.8327C1006.27 67.9646 998.874 61.4674 987.867 54.9582C969.87 44.3159 965.796 39.8412 965.806 30.7276C965.82 15.8822 984.118 9.63862 999.528 19.2184L1005.65 23.0205V14.5577V6.09361L1001.12 4.09532C998.327 2.86254 992.424 1.94851 985.724 1.71065C976.717 1.39068 973.927 1.75412 969.423 3.83693ZM1083.02 3.30445C1062.02 8.95039 1044.04 29.2509 1040.68 51.1017C1034.56 90.8961 1070.56 124.892 1110.49 117.025C1124.04 114.356 1131.83 110.455 1141.29 101.6C1155.48 88.3279 1161.71 70.1489 1158.9 50.2154C1155.79 28.1823 1139.44 9.95979 1116.81 3.31291C1108.66 0.919785 1091.91 0.914955 1083.02 3.30445ZM1350.78 2.50997C1345.4 4.22572 1337.1 10.5925 1333.88 15.4777C1329.28 22.4289 1327.65 28.6218 1328.35 36.3638C1329.56 49.689 1333.95 54.8592 1355.51 68.3401C1369.78 77.2654 1373.15 81.5663 1372.38 89.871C1371.51 99.1694 1364.27 105.226 1354 105.226C1347.3 105.226 1340.59 102.003 1333.3 95.2839L1327.94 90.3443L1328.29 102.263L1328.63 114.18L1334.07 115.88C1342.2 118.427 1361.1 118.372 1368.52 115.781C1376.26 113.075 1382.68 107.771 1386.88 100.618C1389.7 95.8019 1390.17 93.6623 1390.14 85.9167C1390.07 71.9141 1385.65 66.0967 1366.35 54.6008C1349.05 44.2954 1344.93 39.7386 1344.93 30.9135C1344.93 16.2614 1363.67 9.90184 1378.92 19.3801L1384.78 23.0205V14.5577V6.09361L1380.25 4.09532C1375.18 1.85796 1356.05 0.828022 1350.78 2.50997ZM5.79349 8.19816L10.7258 13.8018L10.6836 56.7971C10.651 89.481 10.2272 101.675 8.91469 107.641C7.96565 111.957 7.16875 115.897 7.14581 116.395C7.12286 116.892 12.6082 117.3 19.336 117.3H31.5684L30.7558 112.772C27.9691 97.2278 27.5936 90.7717 27.8967 63.5696L28.2335 33.3839L47.4703 57.2306C58.0509 70.3457 67.0161 81.0435 67.3928 81.0012C67.7695 80.9602 76.5005 70.394 86.7938 57.5216C97.0871 44.6492 105.971 34.0878 106.536 34.0528C107.101 34.0166 107.316 49.6093 107.013 68.7011C106.604 94.4846 105.998 105.04 104.658 109.734C103.666 113.211 103.134 116.334 103.477 116.677C104.469 117.67 127.851 117.398 127.803 116.395C127.78 115.897 126.973 112.229 126.011 108.244C124.661 102.656 124.258 91.5867 124.243 59.8253C124.224 17.5074 124.561 13.96 129.238 7.23826C130.465 5.47541 131.469 3.70894 131.469 3.31412C131.469 2.91808 126.715 2.59811 120.904 2.60415L110.339 2.6126L107.715 7.132C104.627 12.4507 69.2812 56.1258 67.615 56.6812C66.1552 57.1678 30.687 13.4167 27.5381 7.24429L25.1655 2.59449H13.0139H0.861145L5.79349 8.19816ZM288.458 2.89634C288.47 3.06176 289.267 7.54494 290.227 12.8576C291.494 19.8667 291.982 32.6208 292.007 59.3436C292.04 92.7048 291.573 100.955 288.958 113.376L288.132 117.3H300.499H312.864L312.157 113.98C309.649 102.217 308.923 92.6191 309.224 75.1428L309.564 55.3216L324.657 73.8508C343.431 96.8982 346.905 101.652 351.34 110.357L354.878 117.3H369.349C377.308 117.3 383.821 117.059 383.821 116.765C383.821 116.471 380.754 113.346 377.006 109.823C370.307 103.523 329.487 54.8133 329.487 53.1181C329.487 50.9991 359.118 17.8479 367.11 11.0247C371.985 6.86395 376.198 3.26461 376.476 3.02675C376.753 2.78888 369.938 2.59449 361.331 2.59449H345.684L344.301 7.72606C343.284 11.4993 338.503 18.1329 326.241 32.7802L309.564 52.7027L309.207 38.2136C308.894 25.5658 309.871 14.7617 312.181 5.3112C312.836 2.6295 312.688 2.59449 300.639 2.59449C293.927 2.59449 288.445 2.73093 288.458 2.89634ZM532.081 8.83206C533.52 13.8151 534.056 23.8319 534.45 53.1084C534.921 88.1516 534.518 96.5118 531.545 113.376L530.853 117.3H542.977C558.33 117.3 572.401 115.361 578.769 112.368C591.185 106.532 597.536 97.4343 597.536 85.4868C597.536 74.1503 593.339 66.9335 582.285 59.2639L577.296 55.8022L583.67 49.4234C588.144 44.9438 590.47 41.4507 591.479 37.6956C594.755 25.5006 588.725 13.0858 576.497 6.84705C569.545 3.30083 568.792 3.18734 549.782 2.79492L530.22 2.39164L532.081 8.83206ZM628.224 4.70749C630.673 12.4942 631.341 24.5021 631.324 60.4134C631.31 91.6604 630.903 102.667 629.557 108.244C628.594 112.229 627.788 115.897 627.765 116.395C627.717 117.398 651.098 117.67 652.091 116.677C652.434 116.334 651.867 113.211 650.834 109.734C647.965 100.094 647.978 19.513 650.85 9.5372L652.848 2.59449H640.204C628.713 2.59449 627.619 2.78768 628.224 4.70749ZM1189.65 9.90788L1196.42 17.2213V56.8913C1196.42 87.1398 1195.99 98.8096 1194.61 106.025C1193.61 111.23 1192.8 115.897 1192.8 116.395C1192.8 116.892 1198.23 117.3 1204.87 117.3C1212.11 117.3 1216.95 116.817 1216.95 116.093C1216.95 115.43 1216.12 110.105 1215.11 104.261C1213.74 96.3138 1213.36 86.3574 1213.6 64.7516L1213.93 35.8676L1242.17 71.3044C1257.71 90.7947 1271.75 109.138 1273.39 112.067L1276.37 117.393L1286.2 117.045C1293 116.804 1295.95 116.253 1295.75 115.26C1293.97 106.017 1292.84 73.9305 1293.41 48.4767C1294.02 21.4135 1294.74 13.3635 1297.37 4.70749C1297.95 2.78768 1296.83 2.59449 1285.17 2.59449C1273.49 2.59449 1272.39 2.78526 1272.99 4.70749C1275.44 12.4471 1276.28 22.9493 1276.93 53.6083C1277.35 73.6552 1277.2 88.2953 1276.58 88.2603C1274.93 88.1649 1216.73 14.0964 1213.5 7.98082L1210.65 2.59449H1196.77H1182.88L1189.65 9.90788ZM563.264 14.5637C572.583 18.7958 577.62 29.0444 574.713 37.8562C572.811 43.6168 565.318 50.5197 557.907 53.3354L551.653 55.7116V33.9828V12.2539L554.974 12.2805C556.799 12.295 560.53 13.3225 563.264 14.5637ZM1114.18 16.9798C1131.05 25.7047 1141.42 43.5818 1141.21 63.5696C1140.87 95.401 1113.22 114.854 1086.03 102.403C1068.12 94.202 1057.92 75.7175 1059 53.4248C1059.85 35.9424 1067.4 23.4431 1081.1 16.8228C1087.72 13.6243 1089.26 13.3575 1098.62 13.7765C1106.27 14.1194 1110.23 14.9332 1114.18 16.9798ZM780.12 20.6057C786.237 27.453 783.512 38.2329 774.429 43.1254L770.151 45.4292L764.664 42.5181C749.522 34.4851 754.607 14.583 771.367 16.2952C775.48 16.7154 777.557 17.738 780.12 20.6057ZM216.424 50.1889C220.169 58.7676 223.233 66.2392 223.233 66.791C223.233 67.344 216.441 67.7956 208.14 67.7956C199.839 67.7956 193.047 67.6036 193.047 67.3682C193.047 66.2778 208.894 33.7437 209.232 34.1397C209.443 34.3885 212.68 41.6101 216.424 50.1889ZM459.117 50.1889C462.862 58.7676 465.926 66.2392 465.926 66.791C465.926 67.344 459.134 67.7956 450.833 67.7956C442.532 67.7956 435.74 67.606 435.74 67.3742C435.74 66.3443 451.634 33.7896 451.953 34.1675C452.148 34.4005 455.373 41.6101 459.117 50.1889ZM565.675 62.4213C575.936 68.345 581.439 77.9042 580.318 87.8534C579.198 97.7857 570.497 105.033 557.389 106.95L551.653 107.789V82.4562V57.1231L556.181 58.339C558.672 59.0079 562.944 60.8444 565.675 62.4213ZM778.097 62.338C789.506 66.6316 801.368 73.1155 807.503 78.4113C812.185 82.4538 812.65 83.2929 811.447 85.5399C809.338 89.481 800.923 95.6135 793.354 98.7263C785.769 101.846 772.025 102.601 763.896 100.343C750.948 96.7473 744.301 81.5747 751.194 71.3454C754.844 65.9289 763.652 59.3436 767.246 59.3436C768.839 59.3436 773.722 60.6911 778.097 62.338Z" fill="#EBE8E3"/>
</svg>
